<svg viewBox="0 0 32 32" xml:space="preserve" xmlns="http://www.w3.org/2000/svg"><path d="M28 20.111V5c0-2.757-2.243-5-5-5s-5 2.243-5 5v2.079A7.946 7.946 0 0 0 14 6c-4.411 0-8 3.589-8 8s3.589 8 8 8a7.984 7.984 0 0 0 2.981-.575c-.897 1.494-1.204 3.289-.82 5.091.564 2.649 2.727 4.794 5.381 5.335.482.099.966.146 1.445.146a6.99 6.99 0 0 0 4.435-1.575A6.97 6.97 0 0 0 30 25a6.966 6.966 0 0 0-2-4.889zM8 14c0-3.309 2.691-6 6-6a5.96 5.96 0 0 1 4 1.537v8.925A5.957 5.957 0 0 1 14 20c-3.309 0-6-2.691-6-6zm18.158 14.874c-1.169.956-2.706 1.323-4.216 1.019-1.887-.385-3.424-1.909-3.825-3.793-.387-1.812.191-3.611 1.545-4.812A.996.996 0 0 0 20 20.54V5c0-1.654 1.346-3 3-3s3 1.346 3 3v15.54c0 .286.123.559.337.748A4.96 4.96 0 0 1 28 25a4.984 4.984 0 0 1-1.842 3.874z" fill="#000000" class="fill-000000"></path><path d="M24 22.184V6h-2v16.184A2.996 2.996 0 0 0 20 25c0 1.654 1.346 3 3 3s3-1.346 3-3a2.996 2.996 0 0 0-2-2.816zM23 26a1.001 1.001 0 0 1 0-2 1.001 1.001 0 0 1 0 2zM13 0h2v4h-2zM3.393 4.807l1.415-1.414 2.829 2.83-1.415 1.413zM3.393 23.193l2.829-2.829 1.414 1.414-2.83 2.83zM0 13h4v2H0zM13 24h2v4h-2z" fill="#000000" class="fill-000000"></path></svg>